<svg width="25" height="24" viewBox="0 0 25 24" fill="none" xmlns="http://www.w3.org/2000/svg">
<mask id="mask0_8_14" style="mask-type:alpha" maskUnits="userSpaceOnUse" x="0" y="0" width="25" height="24">
<rect x="0.820312" width="24" height="24" fill="#D9D9D9"/>
</mask>
<g mask="url(#mask0_8_14)">
<path d="M11.4203 16.6L18.4703 9.55L17.0703 8.15L11.4203 13.8L8.57031 10.95L7.17031 12.35L11.4203 16.6ZM12.8203 22C11.437 22 10.137 21.7375 8.92031 21.2125C7.70365 20.6875 6.64531 19.975 5.74531 19.075C4.84531 18.175 4.13281 17.1167 3.60781 15.9C3.08281 14.6833 2.82031 13.3833 2.82031 12C2.82031 10.6167 3.08281 9.31667 3.60781 8.1C4.13281 6.88333 4.84531 5.825 5.74531 4.925C6.64531 4.025 7.70365 3.3125 8.92031 2.7875C10.137 2.2625 11.437 2 12.8203 2C14.2036 2 15.5036 2.2625 16.7203 2.7875C17.937 3.3125 18.9953 4.025 19.8953 4.925C20.7953 5.825 21.5078 6.88333 22.0328 8.1C22.5578 9.31667 22.8203 10.6167 22.8203 12C22.8203 13.3833 22.5578 14.6833 22.0328 15.9C21.5078 17.1167 20.7953 18.175 19.8953 19.075C18.9953 19.975 17.937 20.6875 16.7203 21.2125C15.5036 21.7375 14.2036 22 12.8203 22Z" fill="#E5E1E9"/>
</g>
</svg>
