<svg width="101" height="60" viewBox="0 0 101 60" fill="none" xmlns="http://www.w3.org/2000/svg">
<circle cx="29.5" cy="30" r="29.5" fill="url(#paint0_linear_0_8)"/>
<path d="M28.5569 13.8039C30.9373 13.8039 33.1689 14.3777 35.2517 15.5254C37.3346 16.6306 39.0136 18.3946 40.2888 20.8175C41.564 23.1979 42.2016 26.2158 42.2016 29.8714V29.8714C42.2016 33.9914 45.5415 37.3313 49.6615 37.3313H94.7378C97.2027 37.3313 99.201 39.3296 99.201 41.7945V41.7945C99.201 44.2595 97.2027 46.2577 94.7378 46.2577L23.4612 46.2577C18.6693 46.2577 14.7847 42.3732 14.7847 37.5813L14.7847 29.8714C14.7847 26.4284 15.3798 23.4954 16.57 21.0725C17.7602 18.6496 19.3967 16.8431 21.4795 15.6529C23.5624 14.4202 25.9215 13.8039 28.5569 13.8039ZM34.9967 30.254C34.9967 27.7886 34.4441 25.9608 33.3389 24.7706C32.1912 23.5804 30.5972 22.9853 28.5569 22.9853C24.2212 22.9853 22.0534 25.4082 22.0534 30.254L22.0534 30.8597C22.0534 34.4339 24.9508 37.3313 28.525 37.3313V37.3313C32.0992 37.3313 34.9967 34.4339 34.9967 30.8597V30.254Z" fill="#E5E1E9"/>
<path d="M52.4226 34.3383C51.4752 34.3383 50.6227 34.1311 49.8648 33.7166C49.1069 33.2903 48.5089 32.6923 48.0708 31.9226C47.6445 31.1529 47.4314 30.2648 47.4314 29.2583C47.4314 28.2518 47.6504 27.3637 48.0886 26.594C48.5386 25.8243 49.1484 25.2322 49.9181 24.8177C50.6878 24.3914 51.5463 24.1783 52.4936 24.1783C53.4409 24.1783 54.2994 24.3914 55.0691 24.8177C55.8388 25.2322 56.4428 25.8243 56.8809 26.594C57.3309 27.3637 57.5559 28.2518 57.5559 29.2583C57.5559 30.2648 57.3249 31.1529 56.8631 31.9226C56.4131 32.6923 55.7974 33.2903 55.0159 33.7166C54.2462 34.1311 53.3817 34.3383 52.4226 34.3383ZM52.4226 32.1713C52.8725 32.1713 53.2929 32.0647 53.6837 31.8516C54.0863 31.6266 54.406 31.295 54.6428 30.8569C54.8797 30.4188 54.9981 29.8859 54.9981 29.2583C54.9981 28.3228 54.7494 27.6064 54.2521 27.1091C53.7666 26.5999 53.1686 26.3453 52.4581 26.3453C51.7476 26.3453 51.1496 26.5999 50.6641 27.1091C50.1904 27.6064 49.9536 28.3228 49.9536 29.2583C49.9536 30.1938 50.1845 30.9161 50.6463 31.4253C51.12 31.9226 51.7121 32.1713 52.4226 32.1713Z" fill="#E5E1E9"/>
<path d="M63.1455 34.3383C62.3403 34.3383 61.618 34.1962 60.9786 33.912C60.3391 33.616 59.8299 33.2193 59.451 32.7219C59.3668 32.6079 59.2914 32.4911 59.2246 32.3714C58.8634 31.7238 59.4815 31.07 60.2231 31.07V31.07C60.8635 31.07 61.3967 31.6183 61.9022 32.0114V32.0114C62.2338 32.2601 62.6423 32.3844 63.1278 32.3844C63.6014 32.3844 63.9685 32.2897 64.229 32.1002C64.5014 31.9108 64.6376 31.668 64.6376 31.372C64.6376 31.0523 64.4718 30.8154 64.1402 30.6615C63.8205 30.4957 63.3054 30.3181 62.5949 30.1286C61.8607 29.951 61.2568 29.7675 60.7832 29.578C60.3214 29.3885 59.9187 29.0984 59.5753 28.7077C59.2438 28.3169 59.078 27.7899 59.078 27.1268C59.078 26.5821 59.2319 26.0848 59.5398 25.6348C59.8595 25.1848 60.3095 24.8296 60.8897 24.5691C61.4818 24.3085 62.1745 24.1783 62.9679 24.1783C64.1402 24.1783 65.0757 24.4743 65.7744 25.0664C66.1507 25.3789 66.4359 25.7516 66.6302 26.1843C66.9148 26.8185 66.3313 27.4288 65.6362 27.4288V27.4288C65.0234 27.4288 64.5393 26.8759 64.0514 26.5051V26.5051C63.7672 26.2683 63.3824 26.1499 62.8969 26.1499C62.4469 26.1499 62.0976 26.2328 61.8489 26.3986C61.6121 26.5643 61.4937 26.7953 61.4937 27.0913C61.4937 27.4229 61.6594 27.6775 61.991 27.8551C62.3226 28.0209 62.8377 28.1926 63.5363 28.3702C64.2468 28.5478 64.833 28.7313 65.2948 28.9208C65.7566 29.1103 66.1533 29.4063 66.4849 29.8089C66.8283 30.1997 67.0059 30.7207 67.0177 31.372C67.0177 31.9404 66.8579 32.4496 66.5381 32.8996C66.2303 33.3495 65.7803 33.7048 65.1882 33.9653C64.608 34.214 63.9271 34.3383 63.1455 34.3383Z" fill="#E5E1E9"/>
<path d="M68.4195 29.2583C68.4195 28.2399 68.6268 27.3518 69.0412 26.594C69.4557 25.8243 70.03 25.2322 70.7642 24.8177C71.4983 24.3914 72.3391 24.1783 73.2864 24.1783C74.5061 24.1783 75.5126 24.4862 76.306 25.1019C76.6763 25.3796 76.9902 25.7099 77.2478 26.0928C77.7345 26.8161 77.0795 27.6597 76.2077 27.6597V27.6597C75.6299 27.6597 75.155 27.2433 74.7356 26.8459C74.6665 26.7805 74.592 26.7202 74.512 26.665C74.1804 26.4163 73.766 26.292 73.2686 26.292C72.5582 26.292 71.9957 26.5525 71.5812 27.0735C71.1668 27.5827 70.9595 28.311 70.9595 29.2583C70.9595 30.1938 71.1668 30.922 71.5812 31.443C71.9957 31.9522 72.5582 32.2068 73.2686 32.2068C73.9022 32.2068 74.3973 32.0286 74.7541 31.672C75.1591 31.2672 75.625 30.8569 76.1976 30.8569V30.8569C77.0719 30.8569 77.7215 31.7048 77.2255 32.4248C76.9722 32.7925 76.6657 33.1166 76.306 33.3969C75.5008 34.0245 74.4942 34.3383 73.2864 34.3383C72.3391 34.3383 71.4983 34.1311 70.7642 33.7166C70.03 33.2903 69.4557 32.6982 69.0412 31.9404C68.6268 31.1707 68.4195 30.2767 68.4195 29.2583Z" fill="#E5E1E9"/>
<path d="M85.2859 24.196C86.0319 24.196 86.695 24.3618 87.2753 24.6934C87.8555 25.0131 88.3055 25.4927 88.6252 26.1321C88.9568 26.7597 89.1226 27.5176 89.1226 28.4057V32.9351C89.1226 33.6218 88.5659 34.1784 87.8792 34.1784V34.1784C87.1925 34.1784 86.6358 33.6218 86.6358 32.9351V28.7432C86.6358 27.9616 86.4405 27.3637 86.0497 26.9492C85.6589 26.5229 85.126 26.3098 84.4511 26.3098C83.7643 26.3098 83.2196 26.5229 82.817 26.9492C82.4262 27.3637 82.2308 27.9616 82.2308 28.7432V32.9351C82.2308 33.6218 81.6741 34.1784 80.9874 34.1784V34.1784C80.3008 34.1784 79.7441 33.6218 79.7441 32.9351V22.2777C79.7441 21.591 80.3008 21.0344 80.9874 21.0344H81.0985C81.7238 21.0344 82.2308 21.5413 82.2308 22.1667V23.9255C82.2308 24.4503 83.0301 24.7822 83.5097 24.5691V24.5691C84.0426 24.3204 84.6346 24.196 85.2859 24.196Z" fill="#E5E1E9"/>
<path d="M97.0291 24.196C97.7751 24.196 98.4383 24.3618 99.0185 24.6934C99.5987 25.0131 100.049 25.4927 100.368 26.1321C100.7 26.7597 100.866 27.5176 100.866 28.4057V32.9351C100.866 33.6218 100.309 34.1784 99.6224 34.1784V34.1784C98.9357 34.1784 98.379 33.6218 98.379 32.9351V28.7432C98.379 27.9616 98.1837 27.3637 97.7929 26.9492C97.4021 26.5229 96.8693 26.3098 96.1943 26.3098C95.5075 26.3098 94.9628 26.5229 94.5602 26.9492C94.1694 27.3637 93.974 27.9616 93.974 28.7432V32.9351C93.974 33.6218 93.4173 34.1784 92.7306 34.1784V34.1784C92.044 34.1784 91.4873 33.6218 91.4873 32.9351V22.2777C91.4873 21.591 92.044 21.0344 92.7306 21.0344H92.8417C93.467 21.0344 93.974 21.5413 93.974 22.1667V23.9255C93.974 24.4503 94.7733 24.7822 95.2529 24.5691V24.5691C95.7858 24.3204 96.3778 24.196 97.0291 24.196Z" fill="#E5E1E9"/>
<defs>
<linearGradient id="paint0_linear_0_8" x1="6.36714e-07" y1="30.5175" x2="59" y2="30.5175" gradientUnits="userSpaceOnUse">
<stop stop-color="#6F6DDE"/>
<stop offset="1" stop-color="#63A5D6"/>
<stop offset="1" stop-color="#63A5D6"/>
</linearGradient>
</defs>
</svg>
