<svg width="153" height="46" viewBox="0 0 153 46" fill="none" xmlns="http://www.w3.org/2000/svg">
<path d="M13.6634 45.5455V0.0909064H16.5753V45.5455H13.6634ZM21.3871 15.0945C21.245 13.6622 20.6354 12.5495 19.5582 11.7564C18.4811 10.9633 17.0192 10.5668 15.1726 10.5668C13.9179 10.5668 12.8584 10.7443 11.9943 11.0994C11.1302 11.4427 10.4673 11.9221 10.0057 12.5376C9.55587 13.1532 9.33097 13.8516 9.33097 14.6328C9.30729 15.2839 9.44342 15.852 9.73935 16.3374C10.0471 16.8227 10.4673 17.2429 11 17.598C11.5327 17.9413 12.1482 18.2431 12.8466 18.5036C13.545 18.7521 14.2907 18.9652 15.0838 19.1428L18.3509 19.924C19.937 20.2791 21.393 20.7526 22.7188 21.3445C24.0445 21.9363 25.1927 22.6643 26.1634 23.5284C27.134 24.3925 27.8857 25.4105 28.4183 26.5824C28.9628 27.7543 29.241 29.0978 29.2528 30.6129C29.241 32.8383 28.6728 34.7678 27.5483 36.4013C26.4356 38.023 24.8258 39.2836 22.7188 40.1832C20.6236 41.071 18.0964 41.5149 15.1371 41.5149C12.2015 41.5149 9.64465 41.0651 7.46662 40.1655C5.30043 39.2659 3.60772 37.9342 2.38849 36.1705C1.18111 34.3949 0.547822 32.1991 0.488636 29.5831H7.92827C8.01113 30.8023 8.36032 31.8203 8.97585 32.6371C9.60322 33.442 10.4377 34.0516 11.4794 34.4659C12.5329 34.8684 13.7225 35.0696 15.0483 35.0696C16.3504 35.0696 17.4808 34.8802 18.4396 34.5014C19.4103 34.1226 20.1619 33.5959 20.6946 32.9212C21.2273 32.2464 21.4936 31.4711 21.4936 30.5952C21.4936 29.7784 21.2509 29.0919 20.7656 28.5355C20.2921 27.9792 19.5938 27.5057 18.6705 27.1151C17.759 26.7244 16.6404 26.3693 15.3146 26.0497L11.3551 25.0554C8.2893 24.3097 5.86861 23.1437 4.09304 21.5575C2.31747 19.9714 1.43561 17.8348 1.44744 15.1477C1.43561 12.946 2.02154 11.0225 3.20526 9.37713C4.40081 7.73177 6.04025 6.44744 8.12358 5.52415C10.2069 4.60085 12.5743 4.1392 15.2259 4.1392C17.9247 4.1392 20.2803 4.60085 22.2926 5.52415C24.3168 6.44744 25.8911 7.73177 27.0156 9.37713C28.1402 11.0225 28.7202 12.9283 28.7557 15.0945H21.3871ZM32.6607 34.608V28.5533L47.8418 4.63636H53.062V13.017H49.9725L40.4022 28.1626V28.4467H61.9753V34.608H32.6607ZM50.1145 41V32.7614L50.2566 30.0803V4.63636H57.4654V41H50.1145ZM67.536 41L82.6106 11.1705V10.9219H65.0502V4.63636H90.5652V11.0107L75.4728 41H67.536ZM91.354 34.608V28.5533L106.535 4.63636H111.755V13.017H108.666L99.0955 28.1626V28.4467H120.669V34.608H91.354ZM108.808 41V32.7614L108.95 30.0803V4.63636H116.159V41H108.808ZM138.232 41.4972C135.581 41.4972 133.219 41.0414 131.148 40.13C129.088 39.2067 127.46 37.9401 126.265 36.3303C125.081 34.7086 124.472 32.8383 124.436 30.7195H132.178C132.225 31.6072 132.515 32.3885 133.048 33.0632C133.592 33.7261 134.314 34.241 135.214 34.608C136.113 34.9749 137.125 35.1584 138.25 35.1584C139.422 35.1584 140.458 34.9512 141.357 34.5369C142.257 34.1226 142.961 33.5485 143.47 32.8146C143.979 32.0807 144.234 31.2344 144.234 30.2756C144.234 29.3049 143.961 28.4467 143.417 27.701C142.884 26.9434 142.115 26.3516 141.109 25.9254C140.114 25.4993 138.931 25.2862 137.558 25.2862H134.166V19.6399H137.558C138.718 19.6399 139.741 19.4387 140.629 19.0362C141.529 18.6338 142.227 18.0774 142.724 17.3672C143.222 16.6451 143.47 15.8047 143.47 14.8459C143.47 13.9344 143.251 13.1354 142.813 12.4489C142.387 11.7505 141.783 11.206 141.002 10.8153C140.233 10.4247 139.333 10.2294 138.303 10.2294C137.262 10.2294 136.309 10.4188 135.445 10.7976C134.58 11.1645 133.888 11.6913 133.367 12.3778C132.846 13.0644 132.568 13.8693 132.533 14.7926H125.164C125.2 12.6974 125.797 10.8509 126.957 9.25284C128.117 7.65483 129.68 6.40601 131.645 5.50639C133.622 4.59493 135.853 4.1392 138.339 4.1392C140.848 4.1392 143.044 4.59493 144.926 5.50639C146.808 6.41785 148.27 7.64891 149.312 9.19957C150.365 10.7384 150.886 12.4666 150.874 14.3842C150.886 16.4202 150.253 18.1188 148.974 19.4801C147.708 20.8414 146.057 21.7055 144.021 22.0724V22.3565C146.696 22.6998 148.732 23.629 150.129 25.1442C151.537 26.6475 152.236 28.5296 152.224 30.7905C152.236 32.862 151.638 34.7027 150.43 36.3125C149.235 37.9223 147.584 39.1889 145.477 40.1122C143.37 41.0355 140.955 41.4972 138.232 41.4972Z" fill="url(#paint0_linear_0_4)"/>
<defs>
<linearGradient id="paint0_linear_0_4" x1="70.0414" y1="-7" x2="70.0414" y2="37" gradientUnits="userSpaceOnUse">
<stop stop-color="#F2D56F"/>
<stop offset="0.47" stop-color="#FBF3A1"/>
<stop offset="0.695" stop-color="#B57F12"/>
<stop offset="1" stop-color="#E9C861"/>
</linearGradient>
</defs>
</svg>
