<svg width="84" height="32" viewBox="0 0 84 32" fill="none" xmlns="http://www.w3.org/2000/svg">
<rect x="0.5" y="0.5" width="83" height="31" rx="15.5" fill="url(#paint0_linear_2_681)"/>
<path d="M13.7784 22V10.3636H17.9261C18.8314 10.3636 19.5814 10.5284 20.1761 10.858C20.7708 11.1875 21.2159 11.6383 21.5114 12.2102C21.8068 12.7784 21.9545 13.4186 21.9545 14.1307C21.9545 14.8466 21.8049 15.4905 21.5057 16.0625C21.2102 16.6307 20.7633 17.0814 20.1648 17.4148C19.5701 17.7443 18.822 17.9091 17.9205 17.9091H15.0682V16.4205H17.7614C18.3333 16.4205 18.7973 16.322 19.1534 16.125C19.5095 15.9242 19.7708 15.6515 19.9375 15.3068C20.1042 14.9621 20.1875 14.5701 20.1875 14.1307C20.1875 13.6913 20.1042 13.3011 19.9375 12.9602C19.7708 12.6193 19.5076 12.3523 19.1477 12.1591C18.7917 11.9659 18.322 11.8693 17.7386 11.8693H15.5341V22H13.7784ZM27.4432 22.1761C26.625 22.1761 25.911 21.9886 25.3011 21.6136C24.6913 21.2386 24.2178 20.714 23.8807 20.0398C23.5436 19.3655 23.375 18.5777 23.375 17.6761C23.375 16.7708 23.5436 15.9792 23.8807 15.3011C24.2178 14.6231 24.6913 14.0966 25.3011 13.7216C25.911 13.3466 26.625 13.1591 27.4432 13.1591C28.2614 13.1591 28.9754 13.3466 29.5852 13.7216C30.1951 14.0966 30.6686 14.6231 31.0057 15.3011C31.3428 15.9792 31.5114 16.7708 31.5114 17.6761C31.5114 18.5777 31.3428 19.3655 31.0057 20.0398C30.6686 20.714 30.1951 21.2386 29.5852 21.6136C28.9754 21.9886 28.2614 22.1761 27.4432 22.1761ZM27.4489 20.75C27.9792 20.75 28.4186 20.6098 28.767 20.3295C29.1155 20.0492 29.3731 19.6761 29.5398 19.2102C29.7102 18.7443 29.7955 18.2311 29.7955 17.6705C29.7955 17.1136 29.7102 16.6023 29.5398 16.1364C29.3731 15.6667 29.1155 15.2898 28.767 15.0057C28.4186 14.7216 27.9792 14.5795 27.4489 14.5795C26.9148 14.5795 26.4716 14.7216 26.1193 15.0057C25.7708 15.2898 25.5114 15.6667 25.3409 16.1364C25.1742 16.6023 25.0909 17.1136 25.0909 17.6705C25.0909 18.2311 25.1742 18.7443 25.3409 19.2102C25.5114 19.6761 25.7708 20.0492 26.1193 20.3295C26.4716 20.6098 26.9148 20.75 27.4489 20.75ZM33.4077 25.2727V13.2727H35.0668V14.6875H35.2088C35.3073 14.5057 35.4493 14.2955 35.6349 14.0568C35.8205 13.8182 36.0781 13.6098 36.4077 13.4318C36.7372 13.25 37.1728 13.1591 37.7145 13.1591C38.419 13.1591 39.0478 13.3371 39.6009 13.6932C40.1539 14.0492 40.5876 14.5625 40.902 15.233C41.2202 15.9034 41.3793 16.7102 41.3793 17.6534C41.3793 18.5966 41.2221 19.4053 40.9077 20.0795C40.5933 20.75 40.1615 21.267 39.6122 21.6307C39.063 21.9905 38.4361 22.1705 37.7315 22.1705C37.2012 22.1705 36.7675 22.0814 36.4304 21.9034C36.0971 21.7254 35.8357 21.517 35.6463 21.2784C35.4569 21.0398 35.3111 20.8277 35.2088 20.642H35.1065V25.2727H33.4077ZM35.0724 17.6364C35.0724 18.25 35.1615 18.7879 35.3395 19.25C35.5175 19.7121 35.7751 20.0739 36.1122 20.3352C36.4493 20.5928 36.8622 20.7216 37.3509 20.7216C37.8584 20.7216 38.2827 20.5871 38.6236 20.3182C38.9645 20.0455 39.2221 19.6761 39.3963 19.2102C39.5743 18.7443 39.6634 18.2197 39.6634 17.6364C39.6634 17.0606 39.5762 16.5436 39.402 16.0852C39.2315 15.6269 38.974 15.2652 38.6293 15C38.2884 14.7348 37.8622 14.6023 37.3509 14.6023C36.8584 14.6023 36.4418 14.7292 36.1009 14.983C35.7637 15.2367 35.508 15.5909 35.3338 16.0455C35.1596 16.5 35.0724 17.0303 35.0724 17.6364ZM48.8111 18.3807V13.2727H50.5156V22H48.8452V20.4886H48.7543C48.5535 20.9545 48.2315 21.3428 47.7884 21.6534C47.349 21.9602 46.8016 22.1136 46.1463 22.1136C45.5857 22.1136 45.0895 21.9905 44.6577 21.7443C44.2296 21.4943 43.8925 21.125 43.6463 20.6364C43.4039 20.1477 43.2827 19.5436 43.2827 18.8239V13.2727H44.9815V18.6193C44.9815 19.214 45.1463 19.6875 45.4759 20.0398C45.8054 20.392 46.2334 20.5682 46.7599 20.5682C47.0781 20.5682 47.3944 20.4886 47.7088 20.3295C48.027 20.1705 48.2902 19.9299 48.4986 19.608C48.7107 19.286 48.8149 18.8769 48.8111 18.3807ZM54.4972 10.3636V22H52.7983V10.3636H54.4972ZM59.3224 22.1932C58.7694 22.1932 58.2694 22.0909 57.8224 21.8864C57.3755 21.678 57.0213 21.3769 56.7599 20.983C56.5024 20.589 56.3736 20.1061 56.3736 19.5341C56.3736 19.0417 56.4683 18.6364 56.6577 18.3182C56.8471 18 57.1027 17.7481 57.4247 17.5625C57.7467 17.3769 58.1065 17.2367 58.5043 17.142C58.902 17.0473 59.3073 16.9754 59.7202 16.9261C60.2429 16.8655 60.6671 16.8163 60.9929 16.7784C61.3187 16.7367 61.5554 16.6705 61.7031 16.5795C61.8509 16.4886 61.9247 16.3409 61.9247 16.1364V16.0966C61.9247 15.6004 61.7846 15.2159 61.5043 14.9432C61.2277 14.6705 60.8149 14.5341 60.2656 14.5341C59.6937 14.5341 59.2429 14.661 58.9134 14.9148C58.5876 15.1648 58.3622 15.4432 58.2372 15.75L56.6406 15.3864C56.83 14.8561 57.1065 14.428 57.4702 14.1023C57.8376 13.7727 58.2599 13.5341 58.7372 13.3864C59.2145 13.2348 59.7164 13.1591 60.2429 13.1591C60.5914 13.1591 60.9607 13.2008 61.3509 13.2841C61.7448 13.3636 62.1122 13.5114 62.4531 13.7273C62.7978 13.9432 63.08 14.2519 63.2997 14.6534C63.5194 15.0511 63.6293 15.5682 63.6293 16.2045V22H61.9702V20.8068H61.902C61.7921 21.0265 61.6274 21.2424 61.4077 21.4545C61.188 21.6667 60.9058 21.8428 60.5611 21.983C60.2164 22.1231 59.8035 22.1932 59.3224 22.1932ZM59.6918 20.8295C60.1615 20.8295 60.563 20.7367 60.8963 20.5511C61.2334 20.3655 61.4891 20.1231 61.6634 19.8239C61.8414 19.5208 61.9304 19.197 61.9304 18.8523V17.7273C61.8698 17.7879 61.7524 17.8447 61.5781 17.8977C61.4077 17.947 61.2126 17.9905 60.9929 18.0284C60.7732 18.0625 60.5592 18.0947 60.3509 18.125C60.1425 18.1515 59.9683 18.1742 59.8281 18.1932C59.4986 18.2348 59.1974 18.3049 58.9247 18.4034C58.6558 18.5019 58.4399 18.6439 58.277 18.8295C58.1179 19.0114 58.0384 19.2538 58.0384 19.5568C58.0384 19.9773 58.1937 20.2955 58.5043 20.5114C58.8149 20.7235 59.2107 20.8295 59.6918 20.8295ZM65.892 22V13.2727H67.5341V14.6591H67.625C67.7841 14.1894 68.0644 13.8201 68.4659 13.5511C68.8712 13.2784 69.3295 13.142 69.8409 13.142C69.947 13.142 70.072 13.1458 70.2159 13.1534C70.3636 13.161 70.4792 13.1705 70.5625 13.1818V14.8068C70.4943 14.7879 70.3731 14.767 70.1989 14.7443C70.0246 14.7178 69.8504 14.7045 69.6761 14.7045C69.2746 14.7045 68.9167 14.7898 68.6023 14.9602C68.2917 15.1269 68.0455 15.3598 67.8636 15.6591C67.6818 15.9545 67.5909 16.2917 67.5909 16.6705V22H65.892Z" fill="#141621"/>
<defs>
<linearGradient id="paint0_linear_2_681" x1="39.5" y1="-11" x2="39.5" y2="32" gradientUnits="userSpaceOnUse">
<stop stop-color="#F2D56F"/>
<stop offset="0.437285" stop-color="#FBF3A1"/>
<stop offset="0.649775" stop-color="#B57F12"/>
<stop offset="1" stop-color="#E9C861"/>
</linearGradient>
</defs>
</svg>
